<svg xmlns="http://www.w3.org/2000/svg" width="1200" height="760" viewBox="0 0 1200 760">
  <defs>
    <linearGradient id="desk3" x1="0" y1="0" x2="1" y2="1"><stop stop-color="#6a5848"/><stop offset=".5" stop-color="#514338"/><stop offset="1" stop-color="#332b25"/></linearGradient>
    <linearGradient id="screen3" x1="0" y1="0" x2="0" y2="1"><stop stop-color="#dfeff0"/><stop offset="1" stop-color="#91bfc4"/></linearGradient>
    <linearGradient id="bottle3" x1="0" y1="0" x2="1" y2="1"><stop stop-color="#b7d2df" stop-opacity=".9"/><stop offset="1" stop-color="#537582" stop-opacity=".95"/></linearGradient>
    <filter id="shadow3"><feDropShadow dx="0" dy="18" stdDeviation="15" flood-color="#000" flood-opacity=".45"/></filter>
    <filter id="grain3"><feTurbulence type="fractalNoise" baseFrequency=".7" numOctaves="2" seed="19" result="n"/><feColorMatrix in="n" type="saturate" values="0" result="g"/><feComponentTransfer in="g"><feFuncA type="table" tableValues="0 .12"/></feComponentTransfer></filter>
    <radialGradient id="vig3" cx="46%" cy="42%" r="70%"><stop offset="55%" stop-color="#000" stop-opacity="0"/><stop offset="100%" stop-color="#000" stop-opacity=".62"/></radialGradient>
  </defs>
  <rect width="1200" height="760" fill="url(#desk3)"/>
  <rect x="0" y="0" width="1200" height="145" fill="#24303a" opacity=".86"/>
  <!-- laptop: same position, screen scrolled further, new paragraph highlighted near the bottom -->
  <rect x="86" y="114" width="590" height="330" rx="18" fill="#141b21" filter="url(#shadow3)"/>
  <rect x="110" y="137" width="542" height="278" rx="7" fill="url(#screen3)"/>
  <rect x="143" y="167" width="455" height="10" rx="3" fill="#4d747b" opacity=".5"/>
  <rect x="143" y="191" width="420" height="10" rx="3" fill="#4d747b" opacity=".5"/>
  <rect x="143" y="215" width="444" height="10" rx="3" fill="#4d747b" opacity=".55"/>
  <rect x="143" y="239" width="395" height="10" rx="3" fill="#4d747b" opacity=".55"/>
  <rect x="143" y="272" width="320" height="18" rx="4" fill="#365f68" opacity=".85"/>
  <rect x="143" y="312" width="240" height="14" rx="4" fill="#678e94" opacity=".6"/>
  <rect x="143" y="342" width="180" height="10" rx="3" fill="#4d747b" opacity=".5"/>
  <rect x="391" y="312" width="4" height="30" fill="#2a4a52" opacity=".75"/>
  <!-- keyboard base -->
  <path d="M62 445h640l115 122H18z" fill="#161d22" filter="url(#shadow3)"/>
  <g opacity=".55" fill="#2b373e"><rect x="98" y="474" width="490" height="9" rx="3"/><rect x="123" y="496" width="440" height="8" rx="3"/><rect x="152" y="519" width="390" height="8" rx="3"/></g>
  <!-- lunch container: still present, still largely untouched -->
  <g filter="url(#shadow3)">
    <rect x="811" y="440" width="248" height="155" rx="22" fill="#c9a56e"/>
    <rect x="830" y="460" width="210" height="116" rx="17" fill="#dfc08d"/>
    <path d="M853 519c42-37 82-30 121 2-42 39-83 43-121-2z" fill="#aa744e" opacity=".78"/>
    <path d="M864 507c39-22 72-20 102 1" fill="none" stroke="#80965f" stroke-width="15" stroke-linecap="round"/>
  </g>
  <!-- drink bottle: same position, level essentially unchanged -->
  <g filter="url(#shadow3)">
    <rect x="1033" y="260" width="75" height="229" rx="24" fill="url(#bottle3)"/>
    <rect x="1048" y="226" width="45" height="47" rx="10" fill="#21333c"/>
    <path d="M1052 300c19 17 34 20 51 11" fill="none" stroke="#e2f0f5" stroke-opacity=".34" stroke-width="7"/>
  </g>
  <!-- pencil case: settled back to a similar resting angle -->
  <g transform="rotate(-14 908 240)" filter="url(#shadow3)"><rect x="837" y="188" width="146" height="82" rx="7" fill="#ead9a6"/><line x1="855" y1="213" x2="955" y2="213" stroke="#9a8662" stroke-width="5"/><line x1="855" y1="232" x2="936" y2="232" stroke="#9a8662" stroke-width="4"/></g>
  <!-- workbook, unchanged -->
  <g transform="rotate(8 748 640)"><rect x="688" y="620" width="165" height="16" rx="8" fill="#233d55"/><rect x="837" y="620" width="45" height="16" rx="8" fill="#d1b667"/></g>
  <rect width="1200" height="760" fill="url(#vig3)"/>
  <rect width="1200" height="760" filter="url(#grain3)" opacity=".35"/>
</svg>
